<svg width="18" height="18" viewBox="0 0 18 18" fill="none" xmlns="http://www.w3.org/2000/svg">
<g clip-path="url(#clip0_1_7644)">
<path d="M13.95 17.0625C12.915 17.0625 11.7225 16.185 10.725 15.4425C10.41 15.21 10.125 15 9.9 14.865C9.4275 14.58 9.165 14.4225 9 14.4225C8.835 14.4225 8.5725 14.58 8.1 14.865C7.875 15 7.59 15.21 7.275 15.4425C6.03 16.365 4.485 17.505 3.315 16.8825C2.4375 16.4175 2.4375 15.375 2.4375 13.485V7.2825C2.4375 4.4025 2.4375 2.955 3.4875 1.9425C4.53 0.9375 6.0225 0.9375 9 0.9375C11.9775 0.9375 13.47 0.9375 14.5125 1.9425C15.5625 2.955 15.5625 4.4025 15.5625 7.2825V13.485C15.5625 15.375 15.5625 16.4175 14.685 16.8825C14.4525 17.01 14.205 17.0625 13.95 17.0625ZM9 13.2975C9.48 13.2975 9.855 13.5225 10.485 13.905C10.7475 14.0625 11.0475 14.2875 11.4 14.5425C12.1725 15.1125 13.62 16.1775 14.16 15.8925C14.445 15.7425 14.445 14.7975 14.445 13.485V7.2825C14.445 4.7175 14.445 3.435 13.74 2.7525C13.0275 2.0625 11.685 2.0625 9.0075 2.0625C6.33 2.0625 4.995 2.0625 4.275 2.7525C3.57 3.435 3.57 4.7175 3.57 7.2825V13.485C3.57 14.7975 3.57 15.7425 3.855 15.8925C4.4025 16.185 5.8425 15.1125 6.615 14.5425C6.9675 14.2875 7.2675 14.0625 7.5225 13.905C8.1525 13.53 8.5275 13.2975 9.0075 13.2975H9Z" fill="#94A3B8"/>
</g>
<defs>
<clipPath id="clip0_1_7644">
<rect width="13.125" height="16.125" fill="white" transform="translate(2.4375 0.9375)"/>
</clipPath>
</defs>
</svg>
