<svg width="16" height="16" viewBox="0 0 16 16" fill="none" xmlns="http://www.w3.org/2000/svg">
<path d="M7.77394 12.1186V10.6764C7.53724 11.0785 7.15166 11.3448 6.81498 11.3448V8.4072C7.15166 8.4072 7.53724 8.6735 7.77394 9.07553V8.50361C7.77394 8.38357 7.87359 8.28624 7.99675 8.28624C8.1199 8.28624 8.21956 8.38357 8.21956 8.50361V9.07553C8.45625 8.6735 8.84183 8.4072 9.17852 8.4072V11.3448C8.84183 11.3448 8.45625 11.0785 8.21956 10.6764V12.1186C8.21956 12.1379 8.21314 12.1552 8.20832 12.173H11.7729C11.7879 12.0323 11.7979 11.8902 11.7979 11.7458V8.29397C11.7979 7.26582 11.408 6.31808 10.764 5.59425C10.8443 5.65946 10.9222 5.73118 10.9958 5.80292C11.7667 6.55284 12.2435 7.58969 12.2435 8.7287C12.2435 7.58216 11.7667 6.54531 10.9958 5.79538C10.2248 5.04546 9.16426 4.57812 7.99675 4.57812C5.66171 4.57812 3.75 6.44315 3.75 8.72117V12.173H7.78517C7.78036 12.1552 7.77394 12.1379 7.77394 12.1186ZM5.07067 7.12927C4.83975 6.904 5.02695 6.35612 5.48878 5.90555C5.95062 5.455 6.51222 5.27237 6.74313 5.49766C6.97406 5.72293 6.78685 6.27081 6.32502 6.72137C5.86318 7.17193 5.30159 7.35456 5.07067 7.12927Z" fill="#FF1A41"/>
<path d="M10.7656 5.59375C11.4095 6.31758 11.7995 7.26531 11.7995 8.29346V11.7453C11.7995 11.8897 11.7895 12.0318 11.7745 12.1725H12.2451V8.7282C12.2451 7.58919 11.7683 6.55234 10.9974 5.80242C10.9238 5.73068 10.8458 5.65896 10.7656 5.59375Z" fill="#E20A39"/>
<path d="M8.22489 10.6715C8.46159 11.0735 8.84716 11.3398 9.18385 11.3398V8.40221C8.84716 8.40221 8.46159 8.6685 8.22489 9.07054V8.49862C8.22489 8.37858 8.12524 8.28125 8.00208 8.28125C7.87893 8.28125 7.77927 8.37858 7.77927 8.49862V9.07054C7.54258 8.6685 7.157 8.40221 6.82031 8.40221V11.3398C7.157 11.3398 7.54258 11.0735 7.77927 10.6715V12.1136C7.77927 12.1329 7.78569 12.1502 7.79051 12.168H8.21366C8.21847 12.1502 8.22489 12.1329 8.22489 12.1136V10.6715Z" fill="#EA0F3E"/>
<path d="M8.00304 4.06856C8.0953 4.06856 8.17015 3.99554 8.17015 3.90554V1.91303C8.17015 1.82302 8.0953 1.75 8.00304 1.75C7.91079 1.75 7.83594 1.82302 7.83594 1.91303V3.90554C7.83594 3.99554 7.91079 4.06856 8.00304 4.06856Z" fill="#F41444"/>
<path d="M4.49308 5.39038C4.52572 5.42223 4.56837 5.43815 4.61123 5.43815C4.6541 5.43815 4.69675 5.42223 4.72938 5.39038C4.79466 5.3267 4.79466 5.22354 4.72938 5.15985L3.28526 3.75089C3.21998 3.6872 3.11423 3.6872 3.04896 3.75089C2.98368 3.81457 2.98368 3.91773 3.04896 3.98142L4.49308 5.39038Z" fill="#F41444"/>
<path d="M3.2096 8.41406H1.16711C1.07485 8.41406 1 8.48708 1 8.57709C1 8.66709 1.07485 8.74012 1.16711 8.74012H3.2096C3.30186 8.74012 3.37671 8.66709 3.37671 8.57709C3.37671 8.48708 3.30186 8.41406 3.2096 8.41406Z" fill="#F41444"/>
<path d="M14.8346 8.41406H12.7921C12.6999 8.41406 12.625 8.48708 12.625 8.57709C12.625 8.66709 12.6999 8.74012 12.7921 8.74012H14.8346C14.9269 8.74012 15.0017 8.66709 15.0017 8.57709C15.0017 8.48708 14.9269 8.41406 14.8346 8.41406Z" fill="#F41444"/>
<path d="M11.3859 5.43815C11.4287 5.43815 11.4714 5.42223 11.504 5.39038L12.9481 3.98142C13.0134 3.91773 13.0134 3.81457 12.9481 3.75089C12.8829 3.6872 12.7771 3.6872 12.7118 3.75089L11.2677 5.15985C11.2024 5.22354 11.2024 5.3267 11.2677 5.39038C11.3003 5.42223 11.343 5.43815 11.3859 5.43815Z" fill="#F41444"/>
<path d="M12.5984 12.3894V14.0269C12.5984 14.1469 12.4984 14.2444 12.3759 14.2444H3.62094C3.49844 14.2444 3.39844 14.1469 3.39844 14.0269V12.3894C3.39844 12.2719 3.49844 12.1719 3.62094 12.1719H12.3759C12.4984 12.1719 12.5984 12.2719 12.5984 12.3894Z" fill="#236570"/>
<path d="M6.74793 5.49493C6.51702 5.26965 5.95543 5.45228 5.49358 5.90283C5.03175 6.3534 4.84455 6.90128 5.07548 7.12655C5.30639 7.35184 5.86798 7.16921 6.32983 6.71865C6.79165 6.26809 6.97886 5.72021 6.74793 5.49493Z" fill="#FF8DAB"/>
</svg>
