<svg width="20" height="20" viewBox="0 0 20 20" fill="none" xmlns="http://www.w3.org/2000/svg">
<g clip-path="url(#clip0_1_8996)">
<path d="M19.0318 11.2476L18.8954 9.09873C18.8101 7.64912 18.759 6.92431 18.452 6.28477C18.0683 5.48322 17.4117 4.86074 16.6016 4.51966C16.0132 4.2809 15.3566 4.24679 14.359 4.24679L14.0094 3.3685C13.7024 2.584 13.3187 1.60338 12.3466 1.12586C11.7667 0.835938 11.1357 0.835938 10.0016 0.835938C8.86749 0.835938 8.23649 0.835938 7.65664 1.12586C6.68455 1.60338 6.30083 2.584 5.99385 3.3685L5.64424 4.24679C4.64656 4.24679 3.98998 4.2809 3.4016 4.51966C2.59153 4.86074 1.93494 5.48322 1.55122 6.28477C1.24424 6.92431 1.19308 7.64912 1.1078 9.09873L0.971371 11.2476C0.758193 14.8204 0.64734 16.6111 1.82408 17.8902C3.01788 19.1693 4.79153 19.1693 8.33029 19.1693H11.6729C15.2117 19.1693 16.9853 19.1693 18.1791 17.8902C19.3559 16.6111 19.245 14.8204 19.0318 11.2476ZM10.0016 4.03361H10.0101C10.4791 4.03361 10.8628 4.41733 10.8628 4.88633C10.8628 5.35532 10.4791 5.73904 10.0101 5.73904C9.54114 5.73904 9.14889 5.35532 9.14889 4.88633C9.14889 4.41733 9.53261 4.03361 10.0016 4.03361ZM10.0016 14.6925C8.35587 14.6925 7.01711 13.3538 7.01711 11.708C7.01711 10.0623 8.35587 8.72354 10.0016 8.72354C11.6473 8.72354 12.9861 10.0623 12.9861 11.708C12.9861 13.3538 11.6473 14.6925 10.0016 14.6925Z" fill="#1E293B"/>
</g>
<defs>
<clipPath id="clip0_1_8996">
<rect width="18.3333" height="18.3333" fill="white" transform="translate(0.835938 0.835938)"/>
</clipPath>
</defs>
</svg>
