<svg width="18" height="18" viewBox="0 0 18 18" fill="none" xmlns="http://www.w3.org/2000/svg">
<path d="M3.98219 17.0625C3.65219 17.0625 3.32969 17.0325 3.00719 16.9725C2.81219 16.935 2.64719 16.8 2.57969 16.6125C2.51219 16.425 2.54969 16.215 2.66969 16.065C3.02219 15.63 3.26219 15.1125 3.36719 14.55C3.39719 14.3775 3.30719 14.1675 3.12719 13.98C1.70969 12.54 0.929688 10.65 0.929688 8.67C0.937187 4.41 4.55219 0.9375 8.99969 0.9375C13.4472 0.9375 17.0622 4.41 17.0622 8.6775C17.0622 12.945 13.4472 16.4175 8.99969 16.4175H8.98469C8.46719 16.4175 7.94969 16.3725 7.43969 16.275C7.23719 16.2375 7.02719 16.2 6.98219 16.2C6.95219 16.215 6.74969 16.32 6.53969 16.4325C5.74469 16.8525 4.86719 17.07 3.98219 17.07V17.0625ZM8.99969 2.0625C5.17469 2.0625 2.06219 5.0325 2.06219 8.6775C2.06219 10.365 2.72969 11.97 3.93719 13.2C4.38719 13.65 4.58219 14.2275 4.47719 14.7675C4.40219 15.18 4.26719 15.57 4.08719 15.9375C4.75469 15.9225 5.41469 15.75 6.01469 15.435C6.41219 15.225 6.60719 15.12 6.82469 15.0825C7.04219 15.0525 7.24469 15.0825 7.64969 15.165C8.09219 15.2475 8.51219 15.2775 8.99219 15.2925C12.8172 15.2925 15.9297 12.3225 15.9297 8.6775C15.9297 5.0325 12.8247 2.0625 8.99969 2.0625Z" fill="#94A3B8"/>
<path d="M11.9997 9.75C11.5872 9.75 11.2497 9.4125 11.2497 9C11.2497 8.5875 11.5797 8.25 11.9997 8.25C12.4122 8.25 12.7497 8.5875 12.7497 9C12.7497 9.4125 12.4122 9.75 11.9997 9.75ZM8.99969 9.75C8.58719 9.75 8.24969 9.4125 8.24969 9C8.24969 8.5875 8.57969 8.25 8.99969 8.25C9.41219 8.25 9.74969 8.5875 9.74969 9C9.74969 9.4125 9.41219 9.75 8.99969 9.75ZM6.00719 9.75C5.59469 9.75 5.25719 9.4125 5.25719 9C5.25719 8.5875 5.58719 8.25 6.00719 8.25C6.41969 8.25 6.75719 8.5875 6.75719 9C6.75719 9.4125 6.41969 9.75 6.00719 9.75Z" fill="#94A3B8"/>
</svg>
