<svg width="24" height="24" viewBox="0 0 24 24" fill="none" xmlns="http://www.w3.org/2000/svg">
<path d="M21.9985 8.74414C21.7885 8.74414 21.5885 8.66414 21.4385 8.49414C21.3985 8.44414 17.1085 3.74414 11.9985 3.74414C6.88854 3.74414 2.59854 8.44414 2.55854 8.49414C2.27854 8.80414 1.80854 8.82414 1.49854 8.55414C1.18854 8.27414 1.16854 7.80414 1.43854 7.49414C1.62854 7.28414 6.20854 2.24414 11.9985 2.24414C17.7885 2.24414 22.3685 7.28414 22.5585 7.49414C22.8385 7.80414 22.8085 8.27414 22.4985 8.55414C22.3585 8.68414 22.1785 8.74414 21.9985 8.74414Z" fill="#CBD5E1"/>
<path d="M11.9985 21.7441C6.92853 21.7441 3.20854 17.2941 1.84854 15.3841C1.51854 14.9141 1.24854 14.5541 1.24854 13.9941C1.24854 13.4341 1.50854 13.0741 1.83854 12.6041C3.20854 10.6841 6.91854 6.24414 11.9985 6.24414C17.0785 6.24414 20.7885 10.6941 22.1485 12.6041L21.5385 13.0441L22.1485 12.6141C22.4785 13.0741 22.7385 13.4441 22.7385 14.0041C22.7385 14.5641 22.4785 14.9241 22.1485 15.3941C20.7785 17.3141 17.0685 21.7541 11.9885 21.7541L11.9985 21.7441ZM11.9985 7.74414C7.62854 7.74414 4.29854 11.7541 3.06854 13.4741C2.85854 13.7641 2.74854 13.9241 2.74854 13.9941C2.74854 14.0641 2.85854 14.2241 3.05854 14.5141C4.28854 16.2441 7.61854 20.2441 11.9985 20.2441C16.3785 20.2441 19.7085 16.2341 20.9285 14.5141C21.1385 14.2241 21.2485 14.0641 21.2485 13.9941C21.2485 13.9241 21.1385 13.7641 20.9385 13.4741C19.7085 11.7441 16.3785 7.74414 12.0085 7.74414H11.9985Z" fill="#CBD5E1"/>
<path d="M11.9985 17.7441C9.92854 17.7441 8.24854 16.0641 8.24854 13.9941C8.24854 11.9241 9.92854 10.2441 11.9985 10.2441C14.0685 10.2441 15.7485 11.9241 15.7485 13.9941C15.7485 16.0641 14.0685 17.7441 11.9985 17.7441ZM11.9985 11.7441C10.7585 11.7441 9.74854 12.7541 9.74854 13.9941C9.74854 15.2341 10.7585 16.2441 11.9985 16.2441C13.2385 16.2441 14.2485 15.2341 14.2485 13.9941C14.2485 12.7541 13.2385 11.7441 11.9985 11.7441Z" fill="#CBD5E1"/>
</svg>
