<svg width="40" height="40" viewBox="0 0 40 40" fill="none" xmlns="http://www.w3.org/2000/svg">
<g clip-path="url(#clip0_2009_5682)">
<path d="M44.5 20C44.5 9.23045 35.7696 0.5 25 0.5C14.2304 0.5 5.5 9.23045 5.5 20C5.5 30.7696 14.2304 39.5 25 39.5C35.7696 39.5 44.5 30.7696 44.5 20Z" fill="white"/>
<mask id="mask0_2009_5682" style="mask-type:luminance" maskUnits="userSpaceOnUse" x="10" y="10" width="20" height="20">
<path d="M30 10H10V30H30V10Z" fill="white"/>
</mask>
<g mask="url(#mask0_2009_5682)">
<path d="M29.6 20.2252C29.6 19.5161 29.5364 18.8343 29.4182 18.1797H20V22.0479H25.3818C25.15 23.2979 24.4455 24.357 23.3864 25.0661V27.5752H26.6182C28.5091 25.8343 29.6 23.2706 29.6 20.2252Z" fill="#4285F4"/>
<path d="M19.9989 29.9984C22.6989 29.9984 24.9625 29.1029 26.617 27.5757L23.3852 25.0666C22.4898 25.6666 21.3443 26.0211 19.9989 26.0211C17.3943 26.0211 15.1898 24.262 14.4034 21.8984H11.0625V24.4893C12.708 27.7575 16.0898 29.9984 19.9989 29.9984Z" fill="#34A853"/>
<path d="M14.4045 21.8987C14.2045 21.2987 14.0909 20.6578 14.0909 19.9987C14.0909 19.3396 14.2045 18.6987 14.4045 18.0987V15.5078H11.0636C10.3864 16.8578 10 18.3851 10 19.9987C10 21.6123 10.3864 23.1396 11.0636 24.4896L14.4045 21.8987Z" fill="#FBBC04"/>
<path d="M19.9989 13.9773C21.467 13.9773 22.7852 14.4818 23.8216 15.4727L26.6898 12.6045C24.958 10.9909 22.6943 10 19.9989 10C16.0898 10 12.708 12.2409 11.0625 15.5091L14.4034 18.1C15.1898 15.7364 17.3943 13.9773 19.9989 13.9773Z" fill="#E94235"/>
</g>
</g>
<defs>
<clipPath id="clip0_2009_5682">
<rect width="40" height="40" fill="white"/>
</clipPath>
</defs>
</svg>
