<svg width="24" height="24" viewBox="0 0 24 24" fill="none" xmlns="http://www.w3.org/2000/svg">
<path d="M12.0001 21.7505C10.4101 21.7505 9.46014 21.0505 7.89014 19.8905C3.51014 16.6405 1.09014 12.5705 1.25014 8.72053C1.36014 6.41053 2.44014 4.40053 4.15014 3.35053C6.60014 1.84053 9.32014 1.89053 11.4201 3.46053C11.6301 3.62053 11.8501 3.79053 12.0001 3.89053C12.1501 3.79053 12.3701 3.62053 12.5801 3.46053C14.6801 1.88053 17.4001 1.84053 19.8501 3.35053C21.5601 4.40053 22.6401 6.41053 22.7401 8.72053C22.9101 12.5705 20.4901 16.6305 16.1001 19.8805C14.5301 21.0405 13.5801 21.7405 11.9901 21.7405L12.0001 21.7505ZM7.79014 3.75053C6.96014 3.75053 6.00014 3.98053 4.93014 4.63053C3.65014 5.42053 2.84014 6.97053 2.76014 8.79053C2.61014 12.1305 4.81014 15.7305 8.79014 18.6805C10.2901 19.7905 10.9101 20.2505 12.0001 20.2505C13.0901 20.2505 13.7101 19.7905 15.2101 18.6805C19.1901 15.7405 21.3901 12.1305 21.2401 8.79053C21.1601 6.97053 20.3501 5.42053 19.0701 4.63053C16.3201 2.94053 14.2501 4.09053 13.4801 4.66053C12.7301 5.23053 12.4201 5.46053 12.0001 5.46053C11.5801 5.46053 11.2701 5.23053 10.5201 4.66053C10.0501 4.31053 9.10014 3.74053 7.79014 3.74053V3.75053Z" fill="#CBD5E1"/>
</svg>
