<svg width="24" height="24" viewBox="0 0 24 24" fill="none" xmlns="http://www.w3.org/2000/svg">
<g clip-path="url(#clip0_1_2016)">
<path fill-rule="evenodd" clip-rule="evenodd" d="M9.54977 2.09945C10.9798 0.969453 12.9998 0.969453 14.4298 2.09945L20.9998 7.33945C21.7698 7.93945 22.2398 8.84945 22.2498 9.82945V18.5595C22.2498 20.8795 20.3498 22.7495 18.0298 22.7495H16.0898C15.0198 22.7295 14.1498 21.8595 14.1498 20.7795V17.6995C14.1498 17.3395 13.8498 17.0295 13.4698 17.0295H10.5898C10.2098 17.0295 9.90977 17.3395 9.90977 17.6995V20.7695C9.90977 20.8395 9.89977 20.9195 9.87977 20.9795C9.76977 21.9795 8.91977 22.7495 7.89977 22.7495H5.97977C3.64977 22.7495 1.75977 20.8795 1.75977 18.5595V9.83945C1.75977 8.85945 2.22977 7.94945 3.00977 7.34945L9.54977 2.09945ZM8.40977 20.5995V17.6995C8.40977 16.4995 9.38977 15.5395 10.5798 15.5295H13.4698C14.6698 15.5295 15.6498 16.4895 15.6498 17.6995V20.7795C15.6498 21.0295 15.8498 21.2395 16.1098 21.2495H18.0198C19.5298 21.2495 20.7398 20.0395 20.7398 18.5595V9.83945C20.7398 9.32945 20.4898 8.83945 20.0698 8.52945H20.0598L13.4798 3.26945C12.5998 2.56945 11.3498 2.56945 10.4698 3.26945L3.92977 8.52945H3.90977C3.48977 8.85945 3.24977 9.33945 3.24977 9.84945V18.5595C3.24977 20.0395 4.45977 21.2495 5.96977 21.2495H7.88977C8.16977 21.2495 8.37977 21.0295 8.37977 20.7695C8.37977 20.7095 8.37977 20.6495 8.39977 20.5995H8.40977Z" fill="#CBD5E1"/>
</g>
<defs>
<clipPath id="clip0_1_2016">
<rect width="20.5" height="21.5" fill="white" transform="translate(1.75 1.25)"/>
</clipPath>
</defs>
</svg>
