<?xml version="1.0" encoding="UTF-8"?>
<svg version="1.1" xmlns="http://www.w3.org/2000/svg" width="214" height="214">
<path d="M0 0 C1.99431864 0.00052101 3.98863779 -0.00000596 5.98295593 -0.00151062 C10.12161123 -0.00142189 14.2600677 0.00880551 18.39868164 0.02709961 C23.65745181 0.04985778 28.91593481 0.05030631 34.17474079 0.04358196 C38.27840146 0.04021515 42.38199865 0.04692152 46.4856472 0.0567112 C48.42338922 0.06051125 50.36113836 0.06173348 52.29888344 0.06012535 C73.04402373 0.05724316 95.79419033 0.20720217 112.38671875 14.36328125 C113.01835937 14.86214844 113.65 15.36101563 114.30078125 15.875 C126.09045355 26.18447115 129.4874739 43.59138214 130.56640625 58.453125 C130.64639862 59.50692856 130.72639099 60.56073212 130.80880737 61.64646912 C131.77484939 75.97167772 131.61133465 90.32574637 131.52404785 104.67498779 C131.50314509 108.49098396 131.49436181 112.3070093 131.484375 116.12304688 C131.46327931 123.53653422 131.42940375 130.94988329 131.38671875 138.36328125 C130.72671875 138.36328125 130.06671875 138.36328125 129.38671875 138.36328125 C128.74734375 137.51765625 128.10796875 136.67203125 127.44921875 135.80078125 C120.59037606 127.32692036 109.29054613 123.11915895 99.38671875 119.36328125 C98.32066406 118.94691406 97.25460938 118.53054687 96.15625 118.1015625 C77.64225923 111.79751546 58.56770686 114.66878514 41.32421875 123.05078125 C28.4294507 129.65620829 17.69778073 138.28528302 7.38671875 148.36328125 C6.66726074 149.06227539 5.94780273 149.76126953 5.20654297 150.48144531 C-2.81727662 158.3012552 -10.75851287 166.06182117 -17.66015625 174.90625 C-20.45643522 178.42396895 -23.50758504 181.69068549 -26.5703125 184.9765625 C-28.84169766 187.63013102 -30.69734005 190.44602406 -32.61328125 193.36328125 C-21.20747052 194.05391812 -9.86129457 194.41889349 1.56640625 194.328125 C4.97868257 194.32115541 8.39093993 194.31835143 11.80322266 194.31665039 C14.13408013 194.30595536 16.46491284 194.2789186 18.79541016 194.23657227 C22.22062471 194.17927137 25.64086396 194.18536358 29.06640625 194.203125 C30.10183563 194.17024887 31.13726501 194.13737274 32.20407104 194.10350037 C36.59585675 194.17590643 39.29459722 194.28289534 42.50250244 197.45632935 C44.31640926 200.02143705 45.8572382 202.62061495 47.38671875 205.36328125 C48.70717625 207.37180553 50.03754111 209.37393526 51.38671875 211.36328125 C42.42308824 211.41002009 33.45950091 211.4453583 24.49577427 211.46690559 C20.33169249 211.47725725 16.16769526 211.49125478 12.00366211 211.51416016 C7.97061798 211.53620125 3.93765416 211.54791427 -0.09544563 211.55303574 C-1.6192965 211.55667633 -3.14314396 211.56378143 -4.66695976 211.57474136 C-25.89352551 211.72106902 -50.50189237 210.82000046 -66.8046875 195.3984375 C-79.96562014 180.58883511 -82.76951255 161.2431576 -82.75854492 142.12841797 C-82.76190353 141.26508347 -82.76526215 140.40174896 -82.76872253 139.51225281 C-82.77813515 136.68914303 -82.78017092 133.8660932 -82.78125 131.04296875 C-82.78446998 129.05534848 -82.78783459 127.06772844 -82.79133606 125.08010864 C-82.79730365 120.92286633 -82.79917847 116.76564473 -82.79858398 112.60839844 C-82.79848265 107.32355713 -82.81211545 102.03885104 -82.82935619 96.75404167 C-82.84056523 92.64951996 -82.84250046 88.54502998 -82.84197426 84.44049454 C-82.84314175 82.49437114 -82.84749291 80.54824658 -82.85530663 78.60213852 C-82.93760687 55.98273744 -82.08389248 32.89442515 -65.83984375 15.43359375 C-48.61975251 -0.57807003 -22.02934561 -0.11649532 0 0 Z M-26.38232422 17.26049805 C-27.47519084 17.37843452 -27.47519084 17.37843452 -28.59013557 17.49875355 C-40.5447559 18.93594126 -50.20651605 22.77146726 -58.0078125 32.10546875 C-68.40744884 46.73074808 -66.77270725 68.57303831 -66.78125 85.64453125 C-66.78447726 87.189901 -66.78784233 88.73527047 -66.79133606 90.28063965 C-66.79728064 93.50448309 -66.79918096 96.72829992 -66.79858398 99.95214844 C-66.79850298 103.21197081 -66.80541171 106.4716519 -66.8190918 109.73144531 C-69.13271696 150.1658035 -69.13271696 150.1658035 -52.9296875 185.07421875 C-52.27806641 185.71230469 -52.27806641 185.71230469 -51.61328125 186.36328125 C-48.01606769 184.86781045 -45.98230904 182.83621817 -43.42578125 179.92578125 C-42.63429688 179.02601563 -41.8428125 178.12625 -41.02734375 177.19921875 C-38.74231008 174.5148588 -36.51365812 171.79474856 -34.30078125 169.05078125 C-29.49264233 163.11377493 -24.33194607 157.55574978 -19.11425781 151.98193359 C-17.66734429 150.4215828 -16.24212872 148.84452128 -14.82421875 147.2578125 C7.16722011 122.68983849 35.77801343 100.23797924 69.89453125 98.1484375 C82.72708443 97.81355876 94.40708775 100.11536973 106.39453125 104.48046875 C107.55577515 104.89703735 107.55577515 104.89703735 108.74047852 105.32202148 C110.62403093 105.99835498 112.50559128 106.68023212 114.38671875 107.36328125 C114.46206775 101.30251647 114.51587395 95.24203681 114.55151367 89.1809082 C114.56640399 87.12812539 114.58672297 85.07537323 114.61303711 83.02270508 C115.41399092 53.01446599 115.41399092 53.01446599 102.4140625 27.11328125 C87.70626745 14.41753524 64.38955669 16.20328455 46.12890625 16.1953125 C44.37313817 16.19208899 42.61737034 16.18872415 40.86160278 16.18522644 C37.19548929 16.17927185 33.52939923 16.17738268 29.86328125 16.17797852 C25.21765848 16.17807979 20.57218974 16.16444707 15.92660332 16.14720631 C12.30239198 16.13596218 8.67821639 16.13406309 5.05398941 16.13458824 C3.34396969 16.13342596 1.63394848 16.12910579 -0.07605362 16.12125587 C-8.8996681 16.08454649 -17.60424134 16.30762133 -26.38232422 17.26049805 Z " fill="#94A3B7" transform="translate(82.61328125,-0.36328125)"/>
<path d="M0 0 C7.79066191 6.9723867 12.18687788 17.62603924 13.22265625 27.88671875 C13.7449331 39.213598 10.08448826 49.64521074 2.97265625 58.41015625 C2.47121094 59.03535156 1.96976562 59.66054687 1.453125 60.3046875 C-5.85112293 68.46198629 -16.45681927 72.54682503 -27.16015625 73.625 C-38.70290092 74.14214806 -50.14861106 69.94955157 -59.09375 62.74609375 C-68.16933995 54.16054645 -72.28676982 43.8079703 -73.0234375 31.45703125 C-73.03993078 18.59227333 -68.09410913 8.82488156 -59.3515625 -0.39453125 C-42.08586471 -16.70263572 -17.61270943 -13.81189352 0 0 Z M-31.02734375 11.41015625 C-33.41126492 13.34985677 -33.41126492 13.34985677 -33.22265625 16.88671875 C-33.20935868 18.26966593 -33.18550607 19.65254279 -33.15234375 21.03515625 C-33.14332031 21.7415625 -33.13429688 22.44796875 -33.125 23.17578125 C-33.10141978 24.92071723 -33.06554836 26.6654792 -33.02734375 28.41015625 C-34.61675781 28.35794922 -34.61675781 28.35794922 -36.23828125 28.3046875 C-37.62628627 28.27655226 -39.01430838 28.24925182 -40.40234375 28.22265625 C-41.10101563 28.19751953 -41.7996875 28.17238281 -42.51953125 28.14648438 C-44.79482052 28.08037064 -44.79482052 28.08037064 -48.02734375 28.41015625 C-48.68734375 29.40015625 -49.34734375 30.39015625 -50.02734375 31.41015625 C-48.08764323 33.79407742 -48.08764323 33.79407742 -44.55078125 33.60546875 C-43.16781742 33.5940332 -41.78496318 33.56806883 -40.40234375 33.53515625 C-37.96859375 33.49390625 -35.53484375 33.45265625 -33.02734375 33.41015625 C-33.02734375 38.36015625 -33.02734375 43.31015625 -33.02734375 48.41015625 C-31.70734375 49.07015625 -30.38734375 49.73015625 -29.02734375 50.41015625 C-26.64342258 48.47045573 -26.64342258 48.47045573 -26.83203125 44.93359375 C-26.8434668 43.55062992 -26.86943117 42.16777568 -26.90234375 40.78515625 C-26.94359375 38.35140625 -26.98484375 35.91765625 -27.02734375 33.41015625 C-21.74734375 33.41015625 -16.46734375 33.41015625 -11.02734375 33.41015625 C-10.53234375 31.92515625 -10.53234375 31.92515625 -10.02734375 30.41015625 C-10.52234375 29.42015625 -10.52234375 29.42015625 -11.02734375 28.41015625 C-16.30734375 28.41015625 -21.58734375 28.41015625 -27.02734375 28.41015625 C-27.02734375 23.46015625 -27.02734375 18.51015625 -27.02734375 13.41015625 C-28.34734375 12.75015625 -29.66734375 12.09015625 -31.02734375 11.41015625 Z " fill="#94A3B7" transform="translate(201.02734375,140.58984375)"/>
<path d="M0 0 C5.49885365 3.62494263 8.841887 8.33130483 11.4375 14.3125 C12.61357912 22.02235202 12.06928716 28.83776661 7.44140625 35.28515625 C2.87812382 40.71410202 -2.0645168 43.76074438 -9 45 C-16.49379133 45.36294716 -22.26235131 43.88390665 -28 39 C-33.49899618 33.74594797 -35.97141342 28.91055119 -36.4375 21.25 C-36.27692388 14.58609094 -33.75262313 9.03478268 -29.28515625 4.109375 C-21.36170913 -3.03386398 -9.74277725 -4.92109667 0 0 Z M-17.375 15.5625 C-19.5996142 18.8994213 -19.50030235 21.06905293 -19 25 C-18.08333333 27.08333333 -18.08333333 27.08333333 -16 28 C-12.06905293 28.50030235 -9.8994213 28.5996142 -6.5625 26.375 C-4.52838664 23.28314769 -4.39394571 21.63632575 -5 18 C-6.5 15.5 -6.5 15.5 -9 14 C-12.63632575 13.39394571 -14.28314769 13.52838664 -17.375 15.5625 Z " fill="#94A3B7" transform="translate(72,38)"/>
</svg>
