<svg width="24" height="24" viewBox="0 0 24 24" fill="none" xmlns="http://www.w3.org/2000/svg">
<path d="M5.31023 22.75C4.87023 22.75 4.44023 22.71 4.01023 22.63C3.75023 22.58 3.53023 22.4 3.44023 22.15C3.35023 21.9 3.40023 21.62 3.56023 21.42C4.03023 20.84 4.35023 20.15 4.49023 19.4C4.53023 19.17 4.41023 18.89 4.17023 18.64C2.28023 16.72 1.24023 14.2 1.24023 11.56C1.25023 5.88 6.07023 1.25 12.0002 1.25C17.9302 1.25 22.7502 5.88 22.7502 11.57C22.7502 17.26 17.9302 21.89 12.0002 21.89H11.9802C11.2902 21.89 10.6002 21.83 9.92023 21.7C9.65023 21.65 9.37024 21.6 9.31024 21.6C9.27024 21.62 9.00023 21.76 8.72023 21.91C7.66023 22.47 6.49023 22.76 5.31023 22.76V22.75ZM12.0002 2.75C6.90023 2.75 2.75023 6.71 2.75023 11.57C2.75023 13.82 3.64023 15.96 5.25023 17.6C5.85023 18.2 6.11023 18.97 5.97023 19.69C5.87023 20.24 5.69023 20.76 5.45023 21.25C6.34023 21.23 7.22023 21 8.02023 20.58C8.55023 20.3 8.81023 20.16 9.10023 20.11C9.39023 20.07 9.66023 20.11 10.2002 20.22C10.7902 20.33 11.3502 20.37 11.9902 20.39C17.0902 20.39 21.2402 16.43 21.2402 11.57C21.2402 6.71 17.1002 2.75 12.0002 2.75Z" fill="#CBD5E1"/>
<path d="M16.0002 13C15.4502 13 15.0002 12.55 15.0002 12C15.0002 11.45 15.4402 11 16.0002 11C16.5502 11 17.0002 11.45 17.0002 12C17.0002 12.55 16.5502 13 16.0002 13ZM12.0002 13C11.4502 13 11.0002 12.55 11.0002 12C11.0002 11.45 11.4402 11 12.0002 11C12.5502 11 13.0002 11.45 13.0002 12C13.0002 12.55 12.5502 13 12.0002 13ZM8.01023 13C7.46023 13 7.01023 12.55 7.01023 12C7.01023 11.45 7.45023 11 8.01023 11C8.56024 11 9.01023 11.45 9.01023 12C9.01023 12.55 8.56024 13 8.01023 13Z" fill="#CBD5E1"/>
</svg>
