<svg width="24" height="24" viewBox="0 0 24 24" fill="none" xmlns="http://www.w3.org/2000/svg">
<g clip-path="url(#clip0_1_2019)">
<path d="M15.18 11.9297C14.96 10.9997 14.15 10.4997 12.55 9.50969C10.97 8.53969 10.19 8.04969 9.3 8.31969C8.94 8.42969 8.61 8.63969 8.35 8.92969C7.75 9.58969 7.75 10.5597 7.75 12.4997C7.75 14.4397 7.75 15.4097 8.36 16.0797C8.62 16.3597 8.94 16.5697 9.3 16.6797C9.46 16.7297 9.62 16.7497 9.79 16.7497C10.5 16.7497 11.26 16.2797 12.55 15.4897C14.1 14.5297 14.96 13.9997 15.18 13.0697C15.27 12.6997 15.27 12.2997 15.18 11.9297ZM13.72 12.7197C13.64 13.0497 12.85 13.5397 11.75 14.2197C10.84 14.7797 9.98 15.3297 9.74 15.2497C9.64 15.2097 9.54 15.1497 9.46 15.0697C9.25 14.8297 9.25 13.7997 9.25 12.4997C9.25 11.1997 9.25 10.1697 9.46 9.92969C9.54 9.84969 9.64 9.78969 9.74 9.74969H9.79C10.08 9.74969 10.9 10.2497 11.76 10.7897C12.85 11.4597 13.65 11.9497 13.72 12.2797C13.74 12.3497 13.75 12.4197 13.75 12.4997C13.75 12.5797 13.74 12.6497 13.72 12.7197Z" fill="#CBD5E1"/>
<path d="M21.75 11V12.5C21.75 17.18 21.75 19.53 20.14 21.14C18.53 22.75 16.18 22.75 11.5 22.75C6.82 22.75 4.47 22.75 2.86 21.14C1.25 19.53 1.25 17.18 1.25 12.5C1.25 7.82 1.25 5.47 2.86 3.86C4.47 2.25 6.82 2.25 11.5 2.25H13C13.42 2.25 13.75 2.59 13.75 3.01C13.75 3.43 13.41 3.75 13 3.75H11.5C7.23 3.75 5.09 3.75 3.92 4.92C2.75 6.09 2.75 8.23 2.75 12.5C2.75 16.77 2.75 18.91 3.92 20.08C5.09 21.25 7.23 21.25 11.5 21.25C15.77 21.25 17.91 21.25 19.08 20.08C20.25 18.91 20.25 16.77 20.25 12.5V11C20.25 10.59 20.58 10.25 21 10.25C21.42 10.24 21.75 10.58 21.75 11Z" fill="#CBD5E1"/>
<path d="M22.26 4.8L21.56 4.54C20.7 4.22 20.34 4.08 20.13 3.87C19.92 3.66 19.78 3.3 19.46 2.44L19.2 1.74C19.09 1.45 18.81 1.25 18.5 1.25C18.19 1.25 17.91 1.45 17.8 1.74L17.54 2.44C17.22 3.3 17.08 3.66 16.87 3.87C16.66 4.08 16.3 4.22 15.44 4.54L14.74 4.8C14.45 4.91 14.25 5.19 14.25 5.5C14.25 5.81 14.45 6.09 14.74 6.2L15.44 6.46C16.3 6.78 16.66 6.92 16.87 7.13C17.08 7.34 17.22 7.7 17.54 8.56L17.8 9.26C17.91 9.55 18.19 9.75 18.5 9.75C18.81 9.75 19.09 9.55 19.2 9.26L19.46 8.56C19.78 7.7 19.92 7.34 20.13 7.13C20.34 6.92 20.7 6.78 21.56 6.46L22.26 6.2C22.55 6.09 22.75 5.81 22.75 5.5C22.75 5.19 22.55 4.91 22.26 4.8ZM19.07 6.07C18.83 6.31 18.66 6.57 18.5 6.92C18.34 6.57 18.17 6.31 17.93 6.07C17.69 5.83 17.43 5.66 17.08 5.5C17.43 5.34 17.69 5.17 17.93 4.93C18.17 4.69 18.34 4.43 18.5 4.08C18.66 4.43 18.83 4.69 19.07 4.93C19.31 5.17 19.57 5.34 19.92 5.5C19.57 5.66 19.31 5.83 19.07 6.07Z" fill="#CBD5E1"/>
</g>
<defs>
<clipPath id="clip0_1_2019">
<rect width="21.5" height="21.5" fill="white" transform="translate(1.25 1.25)"/>
</clipPath>
</defs>
</svg>
